#N canvas 1282 663 450 300 10;
#X obj 56 60 noise~;
#X obj 129 189 *~;
#X obj 161 33 inlet;
#X obj 131 251 outlet~;
#X obj 175 153 ead~ 1 100;
#X obj 83 146 bp~ 1000 100;
#X obj 128 217 *~ 10;
#X obj 159 109 t f b;
#X obj 157 60 mtof;
#X connect 0 0 5 0;
#X connect 1 0 6 0;
#X connect 2 0 8 0;
#X connect 4 0 1 1;
#X connect 5 0 1 0;
#X connect 6 0 3 0;
#X connect 7 0 5 1;
#X connect 7 1 4 0;
#X connect 8 0 7 0;
