#N canvas 269 121 1647 893 10;
#X obj 946 122 hradio 15 0 0 3 empty empty empty 0 -8 0 10 -262144
-1 -1 1;
#X obj 512 -12 mtof;
#X obj 757 75 t f b;
#X obj 596 185 phasor~;
#X obj 596 211 -~ 0.5;
#X obj 597 232 abs~;
#X obj 598 253 -~ 0.25;
#X obj 628 414 samphold~;
#X obj 592 289 *~ 4;
#X obj 653 355 spigot~;
#X obj 337 316 != 1;
#X obj 300 317 != 0;
#X obj 374 316 != 2;
#X obj 597 354 spigot~;
#X obj 543 354 spigot~;
#X obj 666 236 noise~;
#X obj 453 146 phasor~;
#X obj 463 189 >~ 0.5;
#X obj 470 235 -~ 0.5;
#X obj 931 137 hradio 15 0 0 4 empty empty empty 0 -8 0 10 -262144
-1 -1 0;
#X obj 317 128 sel 0 1 2;
#X msg 311 158 0.25;
#X msg 352 155 0.1;
#X msg 279 155 0.5;
#X obj 660 488 *~;
#X obj 732 415 samphold~;
#X obj 741 388 phasor~ 4000;
#X obj 637 387 phasor~ 4000;
#X obj 639 572 outlet~;
#X obj 513 -35 inlet;
#X obj 858 152 hsl 128 15 1 1000 0 0 empty empty attack 15 5 0 10 -262144
-1 -1 0 1;
#X obj 858 167 hsl 128 15 1 1000 0 0 empty empty sustain 15 5 0 10
-262144 -1 -1 8400 1;
#X obj 858 182 hsl 128 15 1 1000 0 0 empty empty decay 15 5 0 10 -262144
-1 -1 6200 1;
#X msg 387 147 0.05;
#X text 859 136 pulse width;
#X text 891 120 waveform;
#X obj 858 199 hsl 128 15 0 1 0 0 empty empty volume 15 5 0 10 -262144
-1 -1 7000 1;
#X obj 649 525 *~;
#X obj 595 -31 inlet;
#X obj 660 -30 inlet;
#X obj 720 -28 inlet;
#X obj 762 -23 inlet;
#X obj 816 -16 inlet;
#X obj 871 1 inlet;
#X obj 780 221 bng 15 250 50 0 empty empty empty 17 7 0 10 -262144
-1 -1;
#X obj 857 396 ../env/trap 1 30 100;
#X connect 0 0 10 0;
#X connect 0 0 11 0;
#X connect 0 0 12 0;
#X connect 1 0 2 0;
#X connect 2 0 3 0;
#X connect 2 0 16 0;
#X connect 2 0 26 0;
#X connect 2 1 44 0;
#X connect 2 1 45 0;
#X connect 3 0 4 0;
#X connect 4 0 5 0;
#X connect 5 0 6 0;
#X connect 6 0 8 0;
#X connect 7 0 24 0;
#X connect 8 0 13 0;
#X connect 9 0 25 0;
#X connect 10 0 13 1;
#X connect 11 0 14 1;
#X connect 12 0 9 1;
#X connect 13 0 7 0;
#X connect 14 0 24 0;
#X connect 15 0 9 0;
#X connect 16 0 17 0;
#X connect 17 0 18 0;
#X connect 18 0 14 0;
#X connect 19 0 20 0;
#X connect 20 0 23 0;
#X connect 20 1 21 0;
#X connect 20 2 22 0;
#X connect 20 3 33 0;
#X connect 21 0 17 1;
#X connect 22 0 17 1;
#X connect 23 0 17 1;
#X connect 24 0 37 0;
#X connect 25 0 24 0;
#X connect 26 0 25 1;
#X connect 27 0 7 1;
#X connect 29 0 1 0;
#X connect 30 0 45 1;
#X connect 31 0 45 2;
#X connect 32 0 45 3;
#X connect 36 0 37 1;
#X connect 37 0 28 0;
#X connect 38 0 0 0;
#X connect 39 0 19 0;
#X connect 40 0 30 0;
#X connect 41 0 31 0;
#X connect 42 0 32 0;
#X connect 43 0 36 0;
#X connect 45 0 24 1;
#X coords 0 -1 1 1 133 98 2 858 119;
