#N canvas 1032 596 450 300 10;
#X obj 133 47 inlet;
#X obj 87 127 noise~;
#X obj 132 127 vline~;
#X msg 132 102 0 \, 1 0.1 0 \, 0 0 0.1;
#X obj 105 155 *~;
#X obj 89 198 outlet~;
#X connect 0 0 3 0;
#X connect 1 0 4 0;
#X connect 2 0 4 1;
#X connect 3 0 2 0;
#X connect 4 0 5 0;
