#N canvas 304 104 1612 913 10;
#X obj 383 113 mtof, f 6;
#X obj 402 189 phasor~;
#X obj 379 147 t b f;
#X obj 320 380 *~;
#X obj 466 192 phasor~;
#X obj 486 156 *~ 1.01;
#X obj 543 193 phasor~;
#X obj 550 156 *~ 1.5;
#X obj 438 229 hsl 128 15 1 1000 0 0 empty empty attack 15 5 0 10 -262144
-1 -1 0 1;
#X obj 438 244 hsl 128 15 1 1000 0 0 empty empty sustain 15 5 0 10
-262144 -1 -1 0 1;
#X obj 438 259 hsl 128 15 1 1000 0 0 empty empty decay 15 5 0 10 -262144
-1 -1 0 1;
#X obj 247 72 inlet;
#X obj 441 84 inlet;
#X obj 484 83 inlet;
#X obj 530 83 inlet;
#X obj 583 87 inlet;
#X obj 629 87 inlet;
#X obj 343 446 pack 1 10 10;
#X obj 353 388 t b;
#X obj 298 545 outlet~;
#X obj 692 125 inlet;
#X obj 556 473 *~;
#X obj 438 312 hsl 128 15 0 1 0 0 empty empty volume 15 5 0 10 -262144
-1 -1 3000 1;
#X obj 96 306 ../envelopes/trap 1 10 500;
#X obj 438 274 ../effects/qlop;
#X msg 707 227 1;
#X msg 740 227 100;
#X obj 719 195 loadbang;
#X msg 680 301 0.5;
#X connect 0 0 2 0;
#X connect 1 0 24 0;
#X connect 2 0 23 0;
#X connect 2 1 1 0;
#X connect 2 1 5 0;
#X connect 2 1 7 0;
#X connect 3 0 19 0;
#X connect 4 0 24 0;
#X connect 5 0 4 0;
#X connect 6 0 24 0;
#X connect 7 0 6 0;
#X connect 8 0 17 0;
#X connect 9 0 17 1;
#X connect 9 0 18 0;
#X connect 10 0 17 2;
#X connect 10 0 18 0;
#X connect 11 0 0 0;
#X connect 12 0 8 0;
#X connect 13 0 9 0;
#X connect 14 0 10 0;
#X connect 15 0 24 1;
#X connect 16 0 24 2;
#X connect 17 0 23 1;
#X connect 18 0 17 0;
#X connect 20 0 22 0;
#X connect 21 0 3 1;
#X connect 22 0 21 1;
#X connect 23 0 3 0;
#X connect 24 0 21 0;
#X connect 25 0 8 0;
#X connect 25 0 10 0;
#X connect 26 0 9 0;
#X connect 27 0 25 0;
#X connect 27 0 26 0;
#X connect 27 0 28 0;
#X connect 28 0 22 0;
#X coords 0 -1 1 1 133 104 2 438 226;
