#N canvas 101 130 1815 849 10;
#N canvas 0 0 450 300 (subpatch) 0;
#X array \$0hm 9 float 7 #15308a black;
#A 0 0.115384 0.507693 0 0.507694 0.161538 0.153846 0.2 0.238462 0.469232
;
#X coords 0 1 9 0 133 130 1;
#X restore 671 130 graph;
#X obj 494 345 env/trap 1 40 100;
#X obj 216 512 osc~;
#X obj 217 461 mtof;
#X obj 216 557 *~;
#X obj 217 486 *;
#X obj 217 428 t f b;
#X obj 232 535 tabread \$0hm;
#X obj 315 513 osc~;
#X obj 316 462 mtof;
#X obj 315 558 *~;
#X msg 355 462 2;
#X obj 316 487 *;
#X obj 316 429 t f b;
#X obj 331 536 tabread \$0hm;
#X obj 414 513 osc~;
#X obj 415 462 mtof;
#X obj 414 558 *~;
#X obj 415 487 *;
#X obj 415 429 t f b;
#X obj 430 536 tabread \$0hm;
#X obj 526 512 osc~;
#X obj 527 461 mtof;
#X obj 526 557 *~;
#X obj 527 486 *;
#X obj 527 428 t f b;
#X obj 542 535 tabread \$0hm;
#X obj 625 513 osc~;
#X obj 626 462 mtof;
#X obj 625 558 *~;
#X obj 626 487 *;
#X obj 626 429 t f b;
#X obj 641 536 tabread \$0hm;
#X obj 724 513 osc~;
#X obj 725 462 mtof;
#X obj 724 558 *~;
#X obj 725 487 *;
#X obj 725 429 t f b;
#X obj 740 536 tabread \$0hm;
#X obj 447 672 *~;
#X msg 256 461 1;
#X msg 454 462 3;
#X msg 567 461 4;
#X msg 666 462 5;
#X msg 764 462 6;
#X obj 258 498 - 1;
#X obj 360 495 - 1;
#X obj 465 494 - 1;
#X obj 575 493 - 1;
#X obj 673 496 - 1;
#X obj 773 497 - 1;
#X obj 671 262 hsl 128 15 1 1000 0 0 empty empty attack 15 5 0 10 -262144
-1 -1 0 1;
#X obj 671 277 hsl 128 15 1 1000 0 0 empty empty sustain 15 5 0 10
-262144 -1 -1 600 1;
#X obj 671 292 hsl 128 15 1 1000 0 0 empty empty decay 15 5 0 10 -262144
-1 -1 3500 1;
#X obj 240 203 inlet;
#X obj 294 204 inlet;
#X obj 354 205 inlet;
#X obj 408 206 inlet;
#X obj 353 758 outlet~;
#X text 707 113 harmonic synth;
#X obj 838 514 osc~;
#X obj 839 463 mtof;
#X obj 838 559 *~;
#X obj 839 488 *;
#X obj 839 430 t f b;
#X obj 854 537 tabread \$0hm;
#X obj 937 515 osc~;
#X obj 938 464 mtof;
#X obj 937 560 *~;
#X obj 938 489 *;
#X obj 938 431 t f b;
#X obj 953 538 tabread \$0hm;
#X obj 1036 515 osc~;
#X obj 1037 464 mtof;
#X obj 1036 560 *~;
#X obj 1037 489 *;
#X obj 1037 431 t f b;
#X obj 1052 538 tabread \$0hm;
#X obj 887 495 - 1;
#X obj 985 498 - 1;
#X obj 1085 499 - 1;
#X msg 879 463 7;
#X msg 978 464 8;
#X msg 1076 464 9;
#X msg 848 180 1;
#X msg 883 180 100;
#X obj 853 141 loadbang;
#X obj 671 309 hsl 128 15 0 1 0 0 empty empty volume 15 5 0 10 -262144
-1 -1 0 1;
#X obj 455 703 *~;
#X connect 1 0 39 1;
#X connect 2 0 4 0;
#X connect 3 0 5 0;
#X connect 4 0 39 0;
#X connect 5 0 2 0;
#X connect 6 0 3 0;
#X connect 6 1 40 0;
#X connect 7 0 4 1;
#X connect 8 0 10 0;
#X connect 9 0 12 0;
#X connect 10 0 39 0;
#X connect 11 0 12 1;
#X connect 11 0 46 0;
#X connect 12 0 8 0;
#X connect 13 0 9 0;
#X connect 13 1 11 0;
#X connect 14 0 10 1;
#X connect 15 0 17 0;
#X connect 16 0 18 0;
#X connect 17 0 39 0;
#X connect 18 0 15 0;
#X connect 19 0 16 0;
#X connect 19 1 41 0;
#X connect 20 0 17 1;
#X connect 21 0 23 0;
#X connect 22 0 24 0;
#X connect 23 0 39 0;
#X connect 24 0 21 0;
#X connect 25 0 22 0;
#X connect 25 1 42 0;
#X connect 26 0 23 1;
#X connect 27 0 29 0;
#X connect 28 0 30 0;
#X connect 29 0 39 0;
#X connect 30 0 27 0;
#X connect 31 0 28 0;
#X connect 31 1 43 0;
#X connect 32 0 29 1;
#X connect 33 0 35 0;
#X connect 34 0 36 0;
#X connect 35 0 39 0;
#X connect 36 0 33 0;
#X connect 37 0 34 0;
#X connect 37 1 44 0;
#X connect 37 1 1 0;
#X connect 38 0 35 1;
#X connect 39 0 88 0;
#X connect 40 0 5 1;
#X connect 40 0 45 0;
#X connect 41 0 18 1;
#X connect 41 0 47 0;
#X connect 42 0 24 1;
#X connect 42 0 48 0;
#X connect 43 0 30 1;
#X connect 43 0 49 0;
#X connect 44 0 36 1;
#X connect 44 0 50 0;
#X connect 45 0 7 0;
#X connect 46 0 14 0;
#X connect 47 0 20 0;
#X connect 48 0 26 0;
#X connect 49 0 32 0;
#X connect 50 0 38 0;
#X connect 51 0 1 1;
#X connect 52 0 1 2;
#X connect 53 0 1 3;
#X connect 54 0 6 0;
#X connect 54 0 37 0;
#X connect 54 0 31 0;
#X connect 54 0 25 0;
#X connect 54 0 19 0;
#X connect 54 0 13 0;
#X connect 54 0 64 0;
#X connect 54 0 76 0;
#X connect 54 0 70 0;
#X connect 55 0 51 0;
#X connect 56 0 52 0;
#X connect 57 0 53 0;
#X connect 60 0 62 0;
#X connect 61 0 63 0;
#X connect 62 0 39 0;
#X connect 63 0 60 0;
#X connect 64 0 61 0;
#X connect 64 1 81 0;
#X connect 65 0 62 1;
#X connect 66 0 68 0;
#X connect 67 0 69 0;
#X connect 68 0 39 0;
#X connect 69 0 66 0;
#X connect 70 0 67 0;
#X connect 70 1 82 0;
#X connect 71 0 68 1;
#X connect 72 0 74 0;
#X connect 73 0 75 0;
#X connect 74 0 39 0;
#X connect 75 0 72 0;
#X connect 76 0 73 0;
#X connect 76 1 83 0;
#X connect 77 0 74 1;
#X connect 78 0 65 0;
#X connect 79 0 71 0;
#X connect 80 0 77 0;
#X connect 81 0 63 1;
#X connect 81 0 78 0;
#X connect 82 0 69 1;
#X connect 82 0 79 0;
#X connect 83 0 75 1;
#X connect 83 0 80 0;
#X connect 84 0 51 0;
#X connect 84 0 52 0;
#X connect 84 0 87 0;
#X connect 85 0 53 0;
#X connect 86 0 84 0;
#X connect 86 0 85 0;
#X connect 87 0 88 1;
#X connect 88 0 58 0;
#X coords 0 -1 1 1 133 216 2 671 111;
