#N canvas 1278 634 450 300 10;
#X obj 84 54 noise~;
#X obj 129 121 *~;
#X obj 175 57 t b;
#X obj 161 33 inlet;
#X obj 126 162 outlet~;
#X obj 83 78 bp~ 15000 30;
#X obj 175 85 ead~ 1 400;
#X connect 0 0 5 0;
#X connect 1 0 4 0;
#X connect 2 0 6 0;
#X connect 3 0 2 0;
#X connect 5 0 1 0;
#X connect 6 0 1 1;
