#N canvas 510 356 1267 625 10;
#X obj 168 256 vline~;
#X obj 184 332 osc~ 550;
#X obj 168 380 *~;
#X obj 184 312 vline~;
#X obj 183 355 *~ 0.5;
#X obj 170 25 inlet;
#X obj 168 403 outlet~;
#X obj 297 92 hsl 128 15 0 800 0 0 empty empty Duration 15 5 0 10 -262144
-1 -1 8300 1;
#X obj 297 109 hsl 128 15 0 800 0 0 empty empty Start\ Frequency 15
5 0 10 -262144 -1 -1 3300 1;
#X obj 31 107 f 50;
#X obj 178 84 f 100;
#X msg 39 197 \$1 \, 0 \$2;
#X obj 37 153 pack 100 100;
#X msg 168 233 1 5 \, 0 5 \$1;
#X obj 265 40 inlet;
#X obj 345 44 inlet;
#X obj 458 23 loadbang;
#X msg 430 53 100;
#X msg 475 62 440;
#X obj 136 59 t b;
#X connect 0 0 2 0;
#X connect 1 0 4 0;
#X connect 2 0 6 0;
#X connect 3 0 1 0;
#X connect 4 0 2 1;
#X connect 5 0 19 0;
#X connect 7 0 10 1;
#X connect 8 0 9 1;
#X connect 9 0 12 0;
#X connect 10 0 12 1;
#X connect 10 0 13 0;
#X connect 11 0 3 0;
#X connect 12 0 11 0;
#X connect 13 0 0 0;
#X connect 14 0 7 0;
#X connect 15 0 8 0;
#X connect 16 0 18 0;
#X connect 16 0 17 0;
#X connect 17 0 7 0;
#X connect 18 0 8 0;
#X connect 19 0 10 0;
#X connect 19 0 9 0;
#X coords 0 -1 1 1 133 36 1 297 90;
