#N canvas 2037 264 773 543 10;
#X obj 155 224 osc~;
#X obj 199 224 osc~;
#X obj 199 203 * 2;
#X obj 230 224 osc~;
#X obj 274 224 osc~;
#X obj 306 224 osc~;
#X obj 351 224 osc~;
#X obj 155 203 * 1;
#X obj 155 177 mtof;
#X obj 155 246 *~ 0.6;
#X obj 230 246 *~ 0.3;
#X obj 230 203 * 3;
#X obj 274 203 * 4;
#X obj 306 204 * 6;
#X obj 351 203 * 12;
#X obj 306 246 *~ 0.4;
#X obj 351 246 *~ 0.4;
#X obj 345 136 spigot;
#X obj 431 246 vline~;
#X obj 262 275 *~ 0.2;
#X obj 262 300 *~;
#X obj 491 177 moses 0;
#X obj 530 201 t b;
#X msg 530 224 0 10;
#X msg 413 224 0 \, 1 1 \, 0 10 500;
#X obj 428 270 lop~ 100;
#X obj 345 88 inlet;
#X obj 262 321 outlet~;
#X obj 345 110 unpack 0 0, f 11;
#X connect 0 0 9 0;
#X connect 1 0 19 0;
#X connect 2 0 1 0;
#X connect 3 0 10 0;
#X connect 4 0 19 0;
#X connect 5 0 15 0;
#X connect 6 0 16 0;
#X connect 7 0 0 0;
#X connect 8 0 7 0;
#X connect 8 0 2 0;
#X connect 8 0 11 0;
#X connect 8 0 12 0;
#X connect 8 0 13 0;
#X connect 8 0 14 0;
#X connect 9 0 19 0;
#X connect 10 0 19 0;
#X connect 11 0 3 0;
#X connect 12 0 4 0;
#X connect 13 0 5 0;
#X connect 14 0 6 0;
#X connect 15 0 19 0;
#X connect 16 0 19 0;
#X connect 17 0 8 0;
#X connect 17 0 24 0;
#X connect 18 0 25 0;
#X connect 19 0 20 0;
#X connect 20 0 27 0;
#X connect 21 1 22 0;
#X connect 22 0 23 0;
#X connect 23 0 18 0;
#X connect 24 0 18 0;
#X connect 25 0 20 1;
#X connect 26 0 28 0;
#X connect 28 0 17 0;
#X connect 28 1 17 1;
#X connect 28 1 21 0;
