#N canvas 526 381 1228 595 10;
#X obj 104 135 phasor~;
#X obj 184 238 phasor~;
#X obj 251 238 phasor~;
#X obj 104 64 mtof;
#X obj 193 197 +~ 15;
#X obj 258 191 -~ 15;
#X obj 24 109 bng 15 250 50 0 empty empty empty 17 7 0 10 -262144 -1
-1;
#X obj 102 20 inlet;
#X obj 147 377 outlet~;
#X obj 146 348 *~;
#X obj 271 60 hsl 128 15 0 10 0 0 empty empty detune 15 5 0 10 -262144
-1 -1 0 1;
#X obj 271 75 hsl 128 15 0 100 0 0 empty empty attack 15 5 0 10 -262144
-1 -1 0 1;
#X obj 271 90 hsl 128 15 0 1000 0 0 empty empty decay 15 5 0 10 -262144
-1 -1 0 1;
#X obj 170 295 -~ 1.5;
#X obj -14 158 ead~ 10 100;
#X obj 185 26 inlet;
#X obj 237 31 inlet;
#X obj 295 33 inlet;
#X connect 0 0 13 0;
#X connect 1 0 13 0;
#X connect 2 0 13 0;
#X connect 3 0 0 0;
#X connect 3 0 4 0;
#X connect 3 0 5 0;
#X connect 3 0 6 0;
#X connect 4 0 1 0;
#X connect 5 0 2 0;
#X connect 6 0 14 0;
#X connect 7 0 3 0;
#X connect 9 0 8 0;
#X connect 10 0 5 1;
#X connect 10 0 4 1;
#X connect 11 0 14 1;
#X connect 12 0 14 2;
#X connect 13 0 9 1;
#X connect 14 0 9 0;
#X connect 15 0 10 0;
#X connect 16 0 11 0;
#X connect 17 0 12 0;
#X coords 0 -1 1 1 133 51 1 271 57;
