#N canvas 627 222 794 651 10;
#X obj 107 191 phasor~;
#X obj 107 213 >~;
#X obj 107 237 -~ 0.5;
#X obj 107 168 t f b;
#X obj 138 267 *~;
#X obj 107 148 mtof;
#X obj 194 172 *~ 0.3;
#X obj 194 192 +~ 0.5;
#X obj 252 152 hsl 128 15 0 1 0 0 empty empty pwm\ travel 15 5 0 10
-262144 -1 -1 0 1;
#X obj 252 137 hsl 128 15 0 100 0 0 empty empty pwm\ lfo\ speed 15
5 0 10 -262144 -1 -1 0 1;
#X obj 194 152 osc~ 30;
#X obj 153 237 env/trap 1 700 10;
#X obj 252 167 hsl 128 15 0 1 0 0 empty empty pwm\ center 15 5 0 10
-262144 -1 -1 0 1;
#X obj 252 186 hsl 128 15 0 500 0 0 empty empty attack 15 5 0 10 -262144
-1 -1 0 1;
#X obj 252 201 hsl 128 15 0 500 0 0 empty empty hold 15 5 0 10 -262144
-1 -1 0 1;
#X obj 252 216 hsl 128 15 0 500 0 0 empty empty decay 15 5 0 10 -262144
-1 -1 0 1;
#X obj 138 290 outlet~;
#X obj 84 59 inlet;
#X obj 178 63 inlet;
#X obj 173 89 unpack 0 0 0;
#X obj 347 69 inlet;
#X obj 342 95 unpack 0 0 0;
#X msg 219 37 30 0.3 0.5;
#X msg 307 35 1 100 10;
#X obj 263 7 loadbang;
#X connect 0 0 1 0;
#X connect 1 0 2 0;
#X connect 2 0 4 0;
#X connect 3 0 0 0;
#X connect 3 1 11 0;
#X connect 4 0 16 0;
#X connect 5 0 3 0;
#X connect 6 0 7 0;
#X connect 7 0 1 1;
#X connect 8 0 6 1;
#X connect 9 0 10 0;
#X connect 10 0 6 0;
#X connect 11 0 4 1;
#X connect 12 0 7 1;
#X connect 13 0 11 1;
#X connect 14 0 11 2;
#X connect 15 0 11 3;
#X connect 17 0 5 0;
#X connect 18 0 19 0;
#X connect 19 0 9 0;
#X connect 19 1 8 0;
#X connect 19 2 12 0;
#X connect 20 0 21 0;
#X connect 21 0 13 0;
#X connect 21 1 14 0;
#X connect 21 2 15 0;
#X connect 22 0 19 0;
#X connect 23 0 21 0;
#X connect 24 0 22 0;
#X connect 24 0 23 0;
#X coords 0 -1 1 1 133 101 2 252 133;
