#N canvas 331 293 1563 724 10;
#X obj 40 165 osc~;
#X obj 352 36 hsl 128 15 0.01 1 1 0 empty empty 1st\ Harmonic 15 5
0 10 -262144 -1 -1 2800 1;
#X obj 352 53 hsl 128 15 0.01 1 1 0 empty empty 2nd\ Harmonic 15 5
0 10 -262144 -1 -1 8850 1;
#X obj 352 70 hsl 128 15 0.01 1 1 0 empty empty 3rd\ Harmonic 15 5
0 10 -262144 -1 -1 0 1;
#X obj 352 87 hsl 128 15 0.01 1 1 0 empty empty 4th\ Harmonic 15 5
0 10 -262144 -1 -1 9500 1;
#X obj 352 104 hsl 128 15 0.01 1 1 0 empty empty 5th\ Harmonic 15 5
0 10 -262144 -1 -1 0 1;
#X obj 352 121 hsl 128 15 0.01 1 1 0 empty empty 6th\ Harmonic 15 5
0 10 -262144 -1 -1 10500 1;
#X obj 352 138 hsl 128 15 0.01 1 1 0 empty empty 7th\ Harmonic 15 5
0 10 -262144 -1 -1 8700 1;
#X obj 352 155 hsl 128 15 0.01 1 1 0 empty empty 8th\ Harmonic 15 5
0 10 -262144 -1 -1 5100 1;
#X obj 40 190 *~;
#X obj 72 165 osc~;
#X obj 72 190 *~;
#X obj 103 165 osc~;
#X obj 103 190 *~;
#X obj 135 165 osc~;
#X obj 135 190 *~;
#X obj 167 165 osc~;
#X obj 167 190 *~;
#X obj 199 165 osc~;
#X obj 199 190 *~;
#X obj 230 165 osc~;
#X obj 230 190 *~;
#X obj 262 165 osc~;
#X obj 262 190 *~;
#X obj 71 19 inlet;
#X obj 71 40 mtof;
#X obj 71 62 t f b;
#X obj 70 116 *~ 2;
#X obj 100 116 *~ 3;
#X obj 130 116 *~ 4;
#X obj 160 116 *~ 5;
#X obj 190 116 *~ 6;
#X obj 220 116 *~ 7;
#X obj 250 116 *~ 8;
#X obj 352 174 hsl 128 15 0 100 0 0 empty empty Attack 15 5 0 10 -262144
-1 -1 270 1;
#X obj 352 191 hsl 128 15 0 100 0 0 empty empty Decay 15 5 0 10 -262144
-1 -1 1070 1;
#X obj 352 208 hsl 128 15 0 500 0 0 empty empty Sustain 15 5 0 10 -262144
-1 -1 9640 1;
#X obj 352 225 hsl 128 15 0 500 0 0 empty empty Release 15 5 0 10 -262144
-1 -1 3140 1;
#X obj 161 23 loadbang;
#X msg 227 22 1;
#X msg 228 45 10;
#X msg 228 66 100;
#X obj 151 227 /~ 8;
#X obj 166 336 vline~;
#X obj 151 359 *~;
#X obj 151 381 outlet~;
#X msg 167 314 0 \, 1 \$1 \, 0.7 \$2 \$1 \, 0 \$3 \$4;
#X obj 167 291 pack 0 0 0 0;
#X obj 416 284 +;
#X obj 419 262 bng 12 250 50 0 empty empty empty 17 7 0 10 -262144
-1 -1;
#X obj 425 338 +;
#X obj 428 316 bng 12 250 50 0 empty empty empty 17 7 0 10 -262144
-1 -1;
#X obj 251 350 lop~ 50;
#X connect 0 0 9 0;
#X connect 1 0 9 1;
#X connect 2 0 11 1;
#X connect 3 0 13 1;
#X connect 4 0 15 1;
#X connect 5 0 17 1;
#X connect 6 0 19 1;
#X connect 7 0 21 1;
#X connect 8 0 23 1;
#X connect 9 0 42 0;
#X connect 10 0 11 0;
#X connect 11 0 42 0;
#X connect 12 0 13 0;
#X connect 13 0 42 0;
#X connect 14 0 15 0;
#X connect 15 0 42 0;
#X connect 16 0 17 0;
#X connect 17 0 42 0;
#X connect 18 0 19 0;
#X connect 19 0 42 0;
#X connect 20 0 21 0;
#X connect 21 0 42 0;
#X connect 22 0 23 0;
#X connect 23 0 42 0;
#X connect 24 0 25 0;
#X connect 25 0 26 0;
#X connect 26 0 0 0;
#X connect 26 0 27 0;
#X connect 26 0 28 0;
#X connect 26 0 29 0;
#X connect 26 0 30 0;
#X connect 26 0 31 0;
#X connect 26 0 32 0;
#X connect 26 0 33 0;
#X connect 26 1 47 0;
#X connect 27 0 10 0;
#X connect 28 0 12 0;
#X connect 29 0 14 0;
#X connect 30 0 16 0;
#X connect 31 0 18 0;
#X connect 32 0 20 0;
#X connect 33 0 22 0;
#X connect 34 0 47 0;
#X connect 34 0 48 0;
#X connect 35 0 47 1;
#X connect 35 0 49 0;
#X connect 35 0 48 1;
#X connect 36 0 51 0;
#X connect 36 0 50 1;
#X connect 37 0 47 2;
#X connect 38 0 39 0;
#X connect 38 0 40 0;
#X connect 38 0 41 0;
#X connect 39 0 1 0;
#X connect 40 0 34 0;
#X connect 40 0 35 0;
#X connect 41 0 36 0;
#X connect 41 0 37 0;
#X connect 42 0 44 0;
#X connect 43 0 52 0;
#X connect 44 0 45 0;
#X connect 46 0 43 0;
#X connect 47 0 46 0;
#X connect 48 0 50 0;
#X connect 49 0 48 0;
#X connect 50 0 47 3;
#X connect 51 0 50 0;
#X connect 52 0 44 1;
#X coords 0 -1 1 1 133 209 2 352 33;
