#N canvas 1972 384 693 497 10;
#X obj 237 135 unpack 0 0 0;
#X obj 236 242 mtof;
#X obj 267 242 mtof;
#X obj 298 242 mtof;
#X obj 214 329 vcf~ 200;
#X obj 235 276 vline~;
#X obj 236 303 lop~ 5;
#X obj 190 303 noise~;
#X obj 310 328 vcf~ 200;
#X obj 331 275 vline~;
#X obj 332 302 lop~ 5;
#X obj 286 302 noise~;
#X obj 405 328 vcf~ 200;
#X obj 426 275 vline~;
#X obj 427 302 lop~ 5;
#X obj 381 302 noise~;
#X obj 230 91 inlet;
#X obj 276 441 outlet~;
#X obj 279 385 *~ 20;
#X obj 423 191 hsl 128 15 1 400 0 0 empty empty resonance 15 5 0 10
-262144 -1 -1 0 1;
#X obj 423 205 hsl 128 15 1 50 0 0 empty empty boost 15 5 0 10 -262144
-1 -1 0 1;
#X obj 533 116 loadbang;
#X msg 501 148 200;
#X msg 551 151 20;
#X obj 338 102 inlet;
#X obj 406 120 inlet;
#X connect 0 0 1 0;
#X connect 0 1 2 0;
#X connect 0 2 3 0;
#X connect 1 0 5 0;
#X connect 2 0 9 0;
#X connect 3 0 13 0;
#X connect 4 0 18 0;
#X connect 5 0 6 0;
#X connect 6 0 4 1;
#X connect 7 0 4 0;
#X connect 8 0 18 0;
#X connect 9 0 10 0;
#X connect 10 0 8 1;
#X connect 11 0 8 0;
#X connect 12 0 18 0;
#X connect 13 0 14 0;
#X connect 14 0 12 1;
#X connect 15 0 12 0;
#X connect 16 0 0 0;
#X connect 18 0 17 0;
#X connect 19 0 12 2;
#X connect 19 0 8 2;
#X connect 19 0 4 2;
#X connect 20 0 18 1;
#X connect 21 0 23 0;
#X connect 21 0 22 0;
#X connect 22 0 19 0;
#X connect 23 0 20 0;
#X connect 24 0 19 0;
#X connect 25 0 20 0;
#X coords 0 -1 1 1 133 35 2 423 188;
