#N canvas 399 606 1299 344 10;
#X obj 221 132 *~;
#X obj 180 105 noise~;
#X obj 225 6 inlet, f 12;
#X obj 237 252 outlet~;
#X obj 236 107 ead~ 10 100;
#X obj 237 227 *~ 30;
#X obj 315 160 mtof;
#X obj 216 70 bng 15 250 50 0 empty empty empty 17 7 0 10 -262144 -1
-1;
#X obj 237 205 vcf~ 120;
#X obj 440 83 hsl 128 15 0 1000 0 0 empty empty Sustain 12 5 0 10 -262144
-1 -1 0 1;
#X obj 440 66 hsl 128 15 0 100 0 0 empty empty Attack 12 5 0 10 -262144
-1 -1 0 1;
#X obj 440 100 hsl 128 15 0 1000 0 0 empty empty Q 12 5 0 10 -262144
-1 -1 0 1;
#X obj 405 173 / 4;
#X obj 320 18 inlet;
#X obj 361 25 inlet;
#X obj 413 31 inlet;
#X connect 0 0 8 0;
#X connect 1 0 0 0;
#X connect 2 0 6 0;
#X connect 2 0 7 0;
#X connect 4 0 0 1;
#X connect 5 0 3 0;
#X connect 6 0 8 1;
#X connect 7 0 4 0;
#X connect 8 0 5 0;
#X connect 9 0 4 2;
#X connect 10 0 4 1;
#X connect 11 0 8 2;
#X connect 11 0 12 0;
#X connect 12 0 5 1;
#X connect 13 0 10 0;
#X connect 14 0 9 0;
#X connect 15 0 11 0;
#X coords 0 -1 1 1 133 55 2 440 63;
