#N canvas 1950 205 1612 634 10;
#X obj 99 190 spigot;
#X obj 105 269 sel 36 37 38 39 40 41 42 43;
#X obj 518 318 spigot;
#X obj 482 383 outlet;
#X obj 551 296 == 1;
#X obj 618 319 spigot;
#X obj 582 384 outlet;
#X obj 707 320 spigot;
#X obj 671 385 outlet;
#X obj 807 321 spigot;
#X obj 771 386 outlet;
#X obj 899 319 spigot;
#X obj 863 384 outlet;
#X obj 999 320 spigot;
#X obj 963 385 outlet;
#X obj 1088 321 spigot;
#X obj 1052 386 outlet;
#X obj 1188 322 spigot;
#X obj 1152 387 outlet;
#X obj 651 297 == 2;
#X obj 740 298 == 3;
#X obj 840 299 == 4;
#X obj 932 297 == 5;
#X obj 1032 298 == 6;
#X obj 1121 299 == 7;
#X obj 1213 298 == 8;
#X obj 696 42 netreceive 60001;
#X obj 716 77 unpack 0 0 0;
#X obj 670 125 == 176;
#X obj 722 150 spigot;
#X obj 774 150 spigot;
#X obj 512 294 f;
#X obj 511 268 t b;
#X obj 618 294 f;
#X obj 617 268 t b;
#X obj 711 297 f;
#X obj 710 271 t b;
#X obj 805 297 f;
#X obj 804 271 t b;
#X obj 896 294 f;
#X obj 895 268 t b;
#X obj 1001 297 f;
#X obj 1000 271 t b;
#X obj 1086 296 f;
#X obj 1085 270 t b;
#X obj 1184 298 f;
#X obj 1183 272 t b;
#X text 840 84 go to python directory and start midimagic!;
#X obj 57 335 i;
#X obj 805 115 s vel;
#X obj 256 229 r vel;
#X obj 57 360 outlet;
#X obj 404 181 bng 15 250 50 0 empty empty empty 17 7 0 10 -262144
-1 -1;
#X obj 102 338 i;
#X obj 102 363 outlet;
#X obj 419 181 bng 15 250 50 0 empty empty empty 17 7 0 10 -262144
-1 -1;
#X obj 149 343 i;
#X obj 149 368 outlet;
#X obj 458 181 bng 15 250 50 0 empty empty empty 17 7 0 10 -262144
-1 -1;
#X obj 194 346 i;
#X obj 194 371 outlet;
#X obj 473 181 bng 15 250 50 0 empty empty empty 17 7 0 10 -262144
-1 -1;
#X obj 240 349 i;
#X obj 240 374 outlet;
#X obj 404 76 bng 15 250 50 0 empty empty empty 17 7 0 10 -262144 -1
-1;
#X obj 285 352 i;
#X obj 285 377 outlet;
#X obj 419 76 bng 15 250 50 0 empty empty empty 17 7 0 10 -262144 -1
-1;
#X obj 332 357 i;
#X obj 332 382 outlet;
#X obj 457 76 bng 15 250 50 0 empty empty empty 17 7 0 10 -262144 -1
-1;
#X obj 377 360 i;
#X obj 377 385 outlet;
#X obj 472 76 bng 15 250 50 0 empty empty empty 17 7 0 10 -262144 -1
-1;
#X obj 488 76 hsl 128 15 0 127 0 0 empty empty empty -2 -8 0 10 -262144
-1 -1 0 1;
#X obj 488 91 hsl 128 15 0 127 0 0 empty empty empty -2 -8 0 10 -262144
-1 -1 6300 1;
#X obj 488 106 hsl 128 15 0 127 0 0 empty empty empty -2 -8 0 10 -262144
-1 -1 5900 1;
#X obj 488 121 hsl 128 15 0 127 0 0 empty empty empty -2 -8 0 10 -262144
-1 -1 2900 1;
#X obj 488 136 hsl 128 15 0 127 0 0 empty empty empty -2 -8 0 10 -262144
-1 -1 6200 1;
#X obj 488 151 hsl 128 15 0 127 0 0 empty empty empty -2 -8 0 10 -262144
-1 -1 1600 1;
#X obj 488 166 hsl 128 15 0 127 0 0 empty empty empty -2 -8 0 10 -262144
-1 -1 4900 1;
#X obj 488 181 hsl 128 15 0 127 0 0 empty empty empty -2 -8 0 10 -262144
-1 -1 3700 1;
#X obj 371 269 loadbang;
#X msg 392 296 64;
#X obj 133 166 == 144;
#X obj 75 133 delay 1;
#X obj 81 161 i;
#X obj 101 107 t b;
#X connect 0 0 1 0;
#X connect 1 0 52 0;
#X connect 1 1 55 0;
#X connect 1 2 58 0;
#X connect 1 3 61 0;
#X connect 1 4 64 0;
#X connect 1 5 67 0;
#X connect 1 6 70 0;
#X connect 1 7 73 0;
#X connect 2 0 74 0;
#X connect 4 0 2 1;
#X connect 5 0 75 0;
#X connect 7 0 76 0;
#X connect 9 0 77 0;
#X connect 11 0 78 0;
#X connect 13 0 79 0;
#X connect 15 0 80 0;
#X connect 17 0 81 0;
#X connect 19 0 5 1;
#X connect 20 0 7 1;
#X connect 21 0 9 1;
#X connect 22 0 11 1;
#X connect 23 0 13 1;
#X connect 24 0 15 1;
#X connect 25 0 17 1;
#X connect 26 0 27 0;
#X connect 27 0 28 0;
#X connect 27 0 84 0;
#X connect 27 1 29 0;
#X connect 27 1 86 1;
#X connect 27 1 87 0;
#X connect 27 2 30 0;
#X connect 27 2 49 0;
#X connect 28 0 29 1;
#X connect 28 0 30 1;
#X connect 29 0 4 0;
#X connect 29 0 25 0;
#X connect 29 0 24 0;
#X connect 29 0 23 0;
#X connect 29 0 22 0;
#X connect 29 0 21 0;
#X connect 29 0 20 0;
#X connect 29 0 19 0;
#X connect 29 0 32 0;
#X connect 29 0 46 0;
#X connect 29 0 44 0;
#X connect 29 0 42 0;
#X connect 29 0 40 0;
#X connect 29 0 38 0;
#X connect 29 0 36 0;
#X connect 29 0 34 0;
#X connect 30 0 31 1;
#X connect 30 0 45 1;
#X connect 30 0 43 1;
#X connect 30 0 41 1;
#X connect 30 0 39 1;
#X connect 30 0 37 1;
#X connect 30 0 35 1;
#X connect 30 0 33 1;
#X connect 31 0 2 0;
#X connect 32 0 31 0;
#X connect 33 0 5 0;
#X connect 34 0 33 0;
#X connect 35 0 7 0;
#X connect 36 0 35 0;
#X connect 37 0 9 0;
#X connect 38 0 37 0;
#X connect 39 0 11 0;
#X connect 40 0 39 0;
#X connect 41 0 13 0;
#X connect 42 0 41 0;
#X connect 43 0 15 0;
#X connect 44 0 43 0;
#X connect 45 0 17 0;
#X connect 46 0 45 0;
#X connect 48 0 51 0;
#X connect 50 0 71 1;
#X connect 50 0 59 1;
#X connect 50 0 56 1;
#X connect 50 0 68 1;
#X connect 50 0 65 1;
#X connect 50 0 62 1;
#X connect 50 0 53 1;
#X connect 50 0 48 1;
#X connect 52 0 62 0;
#X connect 53 0 54 0;
#X connect 55 0 65 0;
#X connect 56 0 57 0;
#X connect 58 0 68 0;
#X connect 59 0 60 0;
#X connect 61 0 71 0;
#X connect 62 0 63 0;
#X connect 64 0 48 0;
#X connect 65 0 66 0;
#X connect 67 0 53 0;
#X connect 68 0 69 0;
#X connect 70 0 56 0;
#X connect 71 0 72 0;
#X connect 73 0 59 0;
#X connect 74 0 3 0;
#X connect 75 0 6 0;
#X connect 76 0 8 0;
#X connect 77 0 10 0;
#X connect 78 0 12 0;
#X connect 79 0 14 0;
#X connect 80 0 16 0;
#X connect 81 0 18 0;
#X connect 82 0 83 0;
#X connect 83 0 71 1;
#X connect 83 0 59 1;
#X connect 83 0 56 1;
#X connect 83 0 53 1;
#X connect 83 0 48 1;
#X connect 83 0 68 1;
#X connect 83 0 65 1;
#X connect 83 0 62 1;
#X connect 84 0 0 1;
#X connect 85 0 86 0;
#X connect 86 0 0 0;
#X connect 87 0 85 0;
#X coords 0 -1 1 1 217 123 2 404 76;
