#N canvas 593 172 973 845 10;
#X obj 218 99 hsl 128 15 0 1 0 0 empty empty Volume 15 5 0 10 -262144
-1 -1 3150 1;
#X obj 74 110 spigot~;
#X obj 131 110 spigot~;
#X obj 74 153 *~;
#X obj 131 153 *~;
#X obj 91 262 dac~;
#X obj 218 116 tgl 32 0 empty empty mute 2 11 0 10 -262144 -1 -1 0
1;
#X obj 74 303 writesf~ 2;
#X msg 287 197 start;
#X msg 319 217 stop;
#X obj 253 116 bng 32 250 50 0 empty empty open 4 14 0 10 -262144 -1
-1;
#X obj 287 116 bng 32 250 50 0 empty empty start 1 14 0 10 -262144
-1 -1;
#X obj 319 116 bng 32 250 50 0 empty empty stop 4 14 0 10 -262144 -1
-1;
#X obj 74 63 inlet~;
#X obj 131 82 inlet~;
#X obj 218 57 loadbang;
#X msg 218 77 0.5;
#X obj 253 157 random 3000;
#X msg 253 177 open -bytes 4 tempsnd\$1.wav;
#X obj 74 185 clip~;
#X obj 131 185 clip~;
#X obj 214 316 * -1;
#X obj 214 289 * 0.9;
#X connect 0 0 4 1;
#X connect 0 0 3 1;
#X connect 0 0 22 0;
#X connect 1 0 3 0;
#X connect 2 0 4 0;
#X connect 3 0 19 0;
#X connect 4 0 20 0;
#X connect 6 0 1 1;
#X connect 6 0 2 1;
#X connect 8 0 7 0;
#X connect 9 0 7 0;
#X connect 10 0 17 0;
#X connect 11 0 8 0;
#X connect 12 0 9 0;
#X connect 13 0 1 0;
#X connect 14 0 2 0;
#X connect 15 0 16 0;
#X connect 16 0 0 0;
#X connect 17 0 18 0;
#X connect 18 0 7 0;
#X connect 19 0 7 0;
#X connect 19 0 5 0;
#X connect 20 0 7 1;
#X connect 20 0 5 1;
#X connect 21 0 20 1;
#X connect 21 0 19 1;
#X connect 22 0 20 2;
#X connect 22 0 19 2;
#X connect 22 0 21 0;
#X coords 0 -1 1 1 133 54 2 218 96;
