#N canvas 610 266 857 598 10;
#X obj 200 192 cup;
#X obj 200 212 % 10;
#X obj 200 232 expr if($f1<$f2 \, $f1 \, (2*$f2)-$f1);
#X obj 239 195 * 2;
#X obj 337 171 \$1;
#X obj 184 126 inlet;
#X obj 351 133 inlet;
#X obj 200 254 outlet;
#X obj 441 142 loadbang;
#X connect 0 0 1 0;
#X connect 1 0 2 0;
#X connect 2 0 7 0;
#X connect 3 0 1 1;
#X connect 4 0 2 1;
#X connect 4 0 3 0;
#X connect 5 0 0 0;
#X connect 6 0 4 0;
#X connect 8 0 4 0;
