#N canvas 1265 536 630 410 10;
#X obj 127 11 inlet;
#X text 170 10 Use key root as argument;
#X obj 131 344 outlet;
#X msg 352 109 0 2 4 5 7 9 11;
#X obj 352 131 unpack 0 0 0 0 0 0 0;
#X obj 353 85 loadbang;
#X obj 257 175 i;
#X obj 281 175 i;
#X obj 305 175 i;
#X obj 329 175 i;
#X obj 353 175 i;
#X obj 377 175 i;
#X obj 401 175 i;
#X obj 243 131 sel 0 1 2 3 4 5 6;
#X obj 243 111 mod 7;
#X obj 223 215 i;
#X floatatom 162 232 5 0 0 0 - - -, f 5;
#X floatatom 162 134 5 0 0 0 - - -, f 5;
#X floatatom 76 83 5 0 0 0 - - -, f 5;
#X obj 127 107 * 12;
#X obj 127 88 i;
#X obj 127 267 +;
#X obj 127 69 / 7;
#X floatatom 79 306 5 0 0 0 - - -, f 5;
#X floatatom 152 41 5 0 0 0 - - -, f 5;
#X obj 44 157 delay 1;
#X obj 48 133 t b f;
#X obj 122 170 i;
#X obj 357 26 inlet;
#X text 403 27 mode;
#X obj 140 303 +;
#X obj 510 244 i;
#X obj 550 189 loadbang;
#X msg 542 219 0;
#X connect 0 0 24 0;
#X connect 3 0 4 0;
#X connect 4 0 6 1;
#X connect 4 1 7 1;
#X connect 4 2 8 1;
#X connect 4 3 9 1;
#X connect 4 4 10 1;
#X connect 4 5 11 1;
#X connect 4 6 12 1;
#X connect 5 0 3 0;
#X connect 6 0 15 0;
#X connect 7 0 15 0;
#X connect 8 0 15 0;
#X connect 9 0 15 0;
#X connect 10 0 15 0;
#X connect 11 0 15 0;
#X connect 12 0 15 0;
#X connect 13 0 6 0;
#X connect 13 1 7 0;
#X connect 13 2 8 0;
#X connect 13 3 9 0;
#X connect 13 4 10 0;
#X connect 13 5 11 0;
#X connect 13 6 12 0;
#X connect 14 0 13 0;
#X connect 14 0 17 0;
#X connect 15 0 16 0;
#X connect 15 0 21 1;
#X connect 19 0 18 0;
#X connect 19 0 26 0;
#X connect 20 0 19 0;
#X connect 21 0 23 0;
#X connect 21 0 30 0;
#X connect 22 0 20 0;
#X connect 24 0 22 0;
#X connect 24 0 14 0;
#X connect 25 0 27 0;
#X connect 26 0 25 0;
#X connect 26 1 27 1;
#X connect 27 0 21 0;
#X connect 28 0 31 0;
#X connect 30 0 2 0;
#X connect 31 0 30 1;
#X connect 32 0 33 0;
#X connect 33 0 31 0;
