#N canvas 987 354 722 506 10;
#X msg 166 153 0 4 7;
#X msg 208 153 2 5 9;
#X msg 250 152 4 7 11;
#X msg 301 153 5 9 12;
#X msg 352 154 7 11 14;
#X obj 217 79 inlet;
#X obj 218 114 sel 0 1 2 3 4 5 6 7;
#X obj 203 247 outlet;
#X msg 409 155 9 12 17;
#X msg 466 157 11 14 18;
#X connect 0 0 7 0;
#X connect 1 0 7 0;
#X connect 2 0 7 0;
#X connect 3 0 7 0;
#X connect 4 0 7 0;
#X connect 5 0 6 0;
#X connect 6 0 0 0;
#X connect 6 1 1 0;
#X connect 6 2 2 0;
#X connect 6 3 3 0;
#X connect 6 4 4 0;
#X connect 6 5 8 0;
#X connect 6 6 9 0;
#X connect 8 0 7 0;
#X connect 9 0 7 0;
