#N canvas 888 345 878 538 10;
#X obj 314 182 metro 100;
#X obj 126 189 tgl 30 0 empty empty empty 17 7 0 10 -262144 -1 -1 0
1;
#X obj 491 294 sel 0;
#X obj 244 175 bng 10 250 50 0 empty empty empty 17 7 0 10 -262144
-1 -1;
#X obj 312 219 i;
#X obj 337 219 + 1;
#X obj 438 295 sel 0;
#X obj 234 175 bng 10 250 50 0 empty empty empty 17 7 0 10 -262144
-1 -1;
#X obj 395 294 sel 0;
#X obj 224 175 bng 10 250 50 0 empty empty empty 17 7 0 10 -262144
-1 -1;
#X obj 352 295 sel 0;
#X obj 214 175 bng 10 250 50 0 empty empty empty 17 7 0 10 -262144
-1 -1;
#X obj 313 295 sel 0;
#X obj 204 175 bng 10 250 50 0 empty empty empty 17 7 0 10 -262144
-1 -1;
#X obj 313 273 mod 8;
#X obj 273 295 sel 0;
#X obj 194 175 bng 10 250 50 0 empty empty empty 17 7 0 10 -262144
-1 -1;
#X obj 233 296 sel 0;
#X obj 184 175 bng 10 250 50 0 empty empty empty 17 7 0 10 -262144
-1 -1;
#X obj 233 274 mod 2;
#X obj 273 273 mod 4;
#X obj 352 273 mod 16;
#X obj 395 272 mod 32;
#X obj 439 273 mod 64;
#X obj 491 272 mod 128;
#X obj 190 117 inlet;
#X obj 436 117 inlet;
#X obj 223 329 outlet;
#X obj 269 330 outlet;
#X obj 316 328 outlet;
#X obj 362 329 outlet;
#X obj 409 329 outlet;
#X obj 456 327 outlet;
#X obj 502 328 outlet;
#X obj 162 330 outlet;
#X obj 161 303 t b;
#X obj 174 175 bng 10 250 50 0 empty empty empty 17 7 0 10 -262144
-1 -1;
#X text 127 171 metrode;
#X obj 164 189 bng 30 250 50 0 empty empty 60 9 13 0 10 -262144 -1
-1;
#X obj 194 189 bng 30 250 50 0 empty empty 120 6 13 0 10 -262144 -1
-1;
#X obj 224 189 bng 30 250 50 0 empty empty 240 6 13 0 10 -262144 -1
-1;
#X msg 282 87 60;
#X msg 309 87 120;
#X msg 337 87 240;
#X floatatom 421 179 12 0 0 0 - - -, f 12;
#X obj 309 145 expr 15000/$f1;
#X obj 495 116 inlet;
#X text 147 118 enable;
#X text 415 99 bpm;
#X text 499 94 miliseconds;
#X obj 233 351 s n16;
#X obj 273 351 s n8;
#X obj 312 354 s n4;
#X obj 351 355 s n2;
#X obj 394 356 s w;
#X obj 435 356 s w2;
#X obj 484 355 s w4;
#X connect 0 0 4 0;
#X connect 1 0 0 0;
#X connect 2 0 3 0;
#X connect 2 0 33 0;
#X connect 2 0 56 0;
#X connect 4 0 5 0;
#X connect 4 0 20 0;
#X connect 4 0 24 0;
#X connect 4 0 23 0;
#X connect 4 0 22 0;
#X connect 4 0 21 0;
#X connect 4 0 19 0;
#X connect 4 0 14 0;
#X connect 4 0 35 0;
#X connect 5 0 4 1;
#X connect 6 0 32 0;
#X connect 6 0 7 0;
#X connect 6 0 55 0;
#X connect 8 0 9 0;
#X connect 8 0 31 0;
#X connect 8 0 54 0;
#X connect 10 0 11 0;
#X connect 10 0 30 0;
#X connect 10 0 53 0;
#X connect 12 0 13 0;
#X connect 12 0 29 0;
#X connect 12 0 52 0;
#X connect 14 0 12 0;
#X connect 15 0 16 0;
#X connect 15 0 28 0;
#X connect 15 0 51 0;
#X connect 17 0 18 0;
#X connect 17 0 27 0;
#X connect 17 0 50 0;
#X connect 19 0 17 0;
#X connect 20 0 15 0;
#X connect 21 0 10 0;
#X connect 22 0 8 0;
#X connect 23 0 6 0;
#X connect 24 0 2 0;
#X connect 25 0 1 0;
#X connect 26 0 45 0;
#X connect 35 0 34 0;
#X connect 35 0 36 0;
#X connect 38 0 41 0;
#X connect 39 0 42 0;
#X connect 40 0 43 0;
#X connect 41 0 45 0;
#X connect 42 0 45 0;
#X connect 43 0 45 0;
#X connect 45 0 0 1;
#X connect 45 0 44 0;
#X connect 46 0 0 1;
#X coords 0 -1 1 1 128 52 2 126 169;
