#N canvas 567 203 1047 814 10;
#X obj 339 231 vradio 15 0 0 9 empty empty empty 0 -8 0 10 -262144
-1 -1 3;
#X obj 354 231 vradio 15 0 0 9 empty empty empty 0 -8 0 10 -262144
-1 -1 0;
#X obj 129 213 hradio 15 0 0 16 empty empty empty 0 -8 0 10 -262144
-1 -1 1;
#X obj 129 138 i;
#X obj 165 138 + 1;
#X obj 128 159 mod 16;
#X obj 219 130 sel 0 1 2 3 4 5 6 7 8 9 10 11 12 13 14 15;
#X obj 179 62 inlet;
#X obj 309 231 vradio 15 0 0 9 empty empty empty 0 -8 0 10 -262144
-1 -1 0;
#X obj 324 231 vradio 15 0 0 9 empty empty empty 0 -8 0 10 -262144
-1 -1 1;
#X obj 279 231 vradio 15 0 0 9 empty empty empty 0 -8 0 10 -262144
-1 -1 7;
#X obj 294 231 vradio 15 0 0 9 empty empty empty 0 -8 0 10 -262144
-1 -1 4;
#X obj 249 231 vradio 15 0 0 9 empty empty empty 0 -8 0 10 -262144
-1 -1 0;
#X obj 264 231 vradio 15 0 0 9 empty empty empty 0 -8 0 10 -262144
-1 -1 4;
#X obj 219 231 vradio 15 0 0 9 empty empty empty 0 -8 0 10 -262144
-1 -1 7;
#X obj 234 231 vradio 15 0 0 9 empty empty empty 0 -8 0 10 -262144
-1 -1 3;
#X obj 189 231 vradio 15 0 0 9 empty empty empty 0 -8 0 10 -262144
-1 -1 3;
#X obj 204 231 vradio 15 0 0 9 empty empty empty 0 -8 0 10 -262144
-1 -1 0;
#X obj 159 231 vradio 15 0 0 9 empty empty empty 0 -8 0 10 -262144
-1 -1 0;
#X obj 174 231 vradio 15 0 0 9 empty empty empty 0 -8 0 10 -262144
-1 -1 4;
#X obj 129 231 vradio 15 0 0 9 empty empty empty 0 -8 0 10 -262144
-1 -1 7;
#X obj 144 231 vradio 15 0 0 9 empty empty empty 0 -8 0 10 -262144
-1 -1 6;
#X obj 283 452 outlet;
#X obj 256 426 expr 8-$i1;
#X obj 219 383 i;
#X obj 218 403 moses 1;
#X obj 80 354 t b;
#X obj 131 238 cnv 15 235 1 empty empty empty 20 12 0 14 -233017 -66577
0;
#X connect 0 0 24 1;
#X connect 1 0 24 1;
#X connect 2 0 6 0;
#X connect 2 0 26 0;
#X connect 3 0 4 0;
#X connect 3 0 5 0;
#X connect 4 0 3 1;
#X connect 5 0 2 0;
#X connect 6 0 20 0;
#X connect 6 1 21 0;
#X connect 6 2 18 0;
#X connect 6 3 19 0;
#X connect 6 4 16 0;
#X connect 6 5 17 0;
#X connect 6 6 14 0;
#X connect 6 7 15 0;
#X connect 6 8 12 0;
#X connect 6 9 13 0;
#X connect 6 10 10 0;
#X connect 6 11 11 0;
#X connect 6 12 8 0;
#X connect 6 13 9 0;
#X connect 6 14 0 0;
#X connect 6 15 1 0;
#X connect 7 0 3 0;
#X connect 8 0 24 1;
#X connect 9 0 24 1;
#X connect 10 0 24 1;
#X connect 11 0 24 1;
#X connect 12 0 24 1;
#X connect 13 0 24 1;
#X connect 14 0 24 1;
#X connect 15 0 24 1;
#X connect 16 0 24 1;
#X connect 17 0 24 1;
#X connect 18 0 24 1;
#X connect 19 0 24 1;
#X connect 20 0 24 1;
#X connect 21 0 24 1;
#X connect 23 0 22 0;
#X connect 24 0 25 0;
#X connect 25 1 23 0;
#X connect 26 0 24 0;
#X coords 0 -1 1 1 240 153 2 129 213;
