#N canvas 2157 491 673 356 10;
#X obj 254 142 s \$0phrase;
#X obj 185 93 list length;
#X msg 210 113 resize \$1;
#X obj 67 88 tabread \$0phrase;
#X obj 67 48 cup;
#X obj 67 68 %;
#X msg 89 21 0;
#X obj 89 -2 inlet reset bang;
#X obj 67 -26 inlet step bang;
#X obj 381 24 inlet phrase input;
#X obj 60 170 outlet;
#X obj 253 176 table \$0phrase;
#X floatatom 16 70 5 0 0 0 - - -, f 5;
#X obj 210 64 list append;
#X obj 225 7 t b l;
#X msg 214 38 0;
#X obj 84 122 sel 0;
#X connect 1 0 2 0;
#X connect 1 0 5 1;
#X connect 2 0 0 0;
#X connect 3 0 16 0;
#X connect 4 0 5 0;
#X connect 5 0 3 0;
#X connect 5 0 12 0;
#X connect 6 0 4 0;
#X connect 7 0 6 0;
#X connect 8 0 4 0;
#X connect 9 0 14 0;
#X connect 13 0 0 0;
#X connect 14 0 15 0;
#X connect 14 1 13 1;
#X connect 14 1 1 0;
#X connect 15 0 13 0;
#X connect 16 1 10 0;
