#N canvas 1146 692 450 300 10;
#X obj 137 87 inlet;
#X obj 137 107 random 100;
#X obj 158 127 inlet;
#X obj 137 209 outlet;
#X obj 137 189 t b;
#X obj 137 168 sel 0;
#X obj 137 147 > \$1;
#X connect 0 0 1 0;
#X connect 1 0 6 0;
#X connect 2 0 6 1;
#X connect 4 0 3 0;
#X connect 5 0 4 0;
#X connect 6 0 5 0;
