#N canvas 1097 585 819 411 10;
#X obj 78 110 hsl 128 15 -1 127 0 0 empty empty probability 15 5 0
10 -262144 -1 -1 0 1;
#X obj 10 26 inlet;
#X obj 78 58 inlet;
#X obj 10 109 random 127;
#X obj 63 154 sel 0;
#X obj 63 174 outlet;
#X obj 63 134 >;
#X obj 117 58 loadbang;
#X msg 117 78 64;
#X connect 0 0 6 1;
#X connect 1 0 3 0;
#X connect 2 0 0 0;
#X connect 3 0 6 0;
#X connect 4 0 5 0;
#X connect 6 0 4 0;
#X connect 7 0 8 0;
#X connect 8 0 0 0;
#X coords 0 -1 1 1 133 20 2 78 107;
