#N canvas 841 429 843 483 10;
#X obj 327 229 list length;
#X msg 327 249 resize \$1;
#X obj 209 204 %;
#X obj 242 265 outlet;
#X obj 396 205 list append;
#X obj 396 160 t b l;
#X msg 396 182 0;
#X obj 396 138 inlet scale input;
#X obj 209 110 inlet selection;
#X obj 209 224 tabread \$0scale;
#X obj 396 278 s \$0scale;
#X obj 395 312 table \$0scale;
#X obj 209 245 sel -1;
#X connect 0 0 1 0;
#X connect 0 0 2 1;
#X connect 1 0 10 0;
#X connect 2 0 9 0;
#X connect 4 0 10 0;
#X connect 5 0 6 0;
#X connect 5 1 4 1;
#X connect 5 1 0 0;
#X connect 6 0 4 0;
#X connect 7 0 5 0;
#X connect 8 0 2 0;
#X connect 9 0 12 0;
#X connect 12 1 3 0;
