#N canvas 825 440 845 577 10;
#X obj 268 197 metro 100;
#X obj 292 126 tgl 32 0 empty empty empty 17 7 0 10 -262144 -1 -1 1
1;
#X obj 268 276 moses 1;
#X obj 268 236 random 50;
#X obj 326 126 hsl 128 15 0 1000 0 0 empty empty Tempo 15 5 0 10 -262144
-1 -1 4267 1;
#X obj 326 143 hsl 128 15 0 50 0 0 empty empty Pulse\ Chance 15 5 0
10 -262144 -1 -1 12700 1;
#X obj 267 309 bng 15 250 50 0 empty empty empty 17 7 0 10 -262144
-1 -1;
#X obj 271 352 outlet;
#X obj 131 58 loadbang;
#X msg 193 130 40;
#X msg 148 106 250;
#X obj 224 60 inlet;
#X obj 279 60 inlet;
#X obj 327 64 inlet;
#X connect 0 0 3 0;
#X connect 1 0 0 0;
#X connect 2 0 6 0;
#X connect 3 0 2 0;
#X connect 4 0 0 1;
#X connect 5 0 2 1;
#X connect 6 0 7 0;
#X connect 8 0 9 0;
#X connect 8 0 10 0;
#X connect 9 0 5 0;
#X connect 10 0 4 0;
#X connect 11 0 1 0;
#X connect 12 0 4 0;
#X connect 13 0 5 0;
#X coords 0 -1 1 1 167 37 2 292 123;
