#N canvas 1968 81 1033 959 10;
#X obj 267 83 openpanel;
#X msg 267 60 symbol /media/allan/DataDrive/projects/sound;
#N canvas 0 0 450 300 (subpatch) 0;
#X array \$0wav 3776 float 2 black black;
#X coords 0 1 3776 -1 127 50 1;
#X restore 188 350 graph;
#X obj 267 125 soundfiler;
#X obj 222 235 vline~;
#X floatatom 336 142 9 0 0 0 - - -, f 9;
#X obj 122 145 mtof;
#X obj 267 145 f;
#X obj 122 168 expr 440*$f2/($f1*44.1);
#X msg 222 214 0 \, \$2 \$1;
#X obj 222 193 pack f f;
#X msg 267 104 read -resize \$1 \$0wav;
#X obj 222 255 tabread4~ \$0wav;
#X obj 75 23 inlet;
#X obj 224 27 inlet;
#X obj 222 280 outlet~;
#X obj 305 340 bng 10 250 50 0 empty empty empty 17 7 0 10 -262144
-1 -1;
#X text 279 337 load;
#X obj 438 114 print;
#X connect 0 0 11 0;
#X connect 0 0 18 0;
#X connect 1 0 0 0;
#X connect 3 0 5 0;
#X connect 3 0 7 0;
#X connect 4 0 12 0;
#X connect 6 0 8 0;
#X connect 7 0 8 1;
#X connect 7 0 10 1;
#X connect 8 0 10 0;
#X connect 9 0 4 0;
#X connect 10 0 9 0;
#X connect 11 0 3 0;
#X connect 12 0 15 0;
#X connect 13 0 6 0;
#X connect 14 0 11 0;
#X connect 16 0 1 0;
#X coords 0 -1 1 1 127 66 2 188 337;
