#N canvas 733 104 942 913 10;
#X obj 267 83 openpanel;
#X msg 267 60 symbol /media/allan/DataDrive/projects/sound;
#N canvas 0 0 450 300 (subpatch) 0;
#X array \$0wav 406 float 4 black black;
#X coords 0 1 405 -1 133 50 1;
#X restore 188 350 graph;
#X obj 267 125 soundfiler;
#X floatatom 336 142 9 0 0 0 - - -, f 9;
#X obj 223 153 mtof;
#X obj 267 145 f;
#X msg 267 104 read -resize \$1 \$0wav;
#X obj 223 216 tabread4~ \$0wav;
#X obj 75 23 inlet;
#X obj 224 27 inlet;
#X obj 157 276 outlet~;
#X obj 311 340 bng 10 250 50 0 empty empty empty 17 7 0 10 -262144
-1 -1;
#X text 285 337 load;
#X obj 223 173 phasor~;
#X obj 223 195 *~;
#X obj 157 251 *~;
#X obj 87 216 ../env/trap 10 100 10;
#X obj 87 195 t b;
#X obj 188 404 hsl 128 15 1 500 0 0 empty empty attack 15 5 0 10 -262144
-1 -1 0 1;
#X obj 188 419 hsl 128 15 1 500 0 0 empty empty sustain 15 5 0 10 -262144
-1 -1 3600 1;
#X obj 188 434 hsl 128 15 1 500 0 0 empty empty decay 15 5 0 10 -262144
-1 -1 0 1;
#X obj 377 306 loadbang;
#X msg 362 354 1;
#X msg 408 356 100;
#X connect 0 0 7 0;
#X connect 1 0 0 0;
#X connect 3 0 4 0;
#X connect 3 0 6 0;
#X connect 5 0 14 0;
#X connect 6 0 15 1;
#X connect 7 0 3 0;
#X connect 8 0 16 1;
#X connect 9 0 5 0;
#X connect 9 0 18 0;
#X connect 10 0 7 0;
#X connect 12 0 1 0;
#X connect 14 0 15 0;
#X connect 15 0 8 0;
#X connect 16 0 11 0;
#X connect 17 0 16 0;
#X connect 18 0 17 0;
#X connect 19 0 17 1;
#X connect 20 0 17 2;
#X connect 21 0 17 3;
#X connect 22 0 24 0;
#X connect 22 0 23 0;
#X connect 23 0 19 0;
#X connect 23 0 21 0;
#X connect 24 0 20 0;
#X coords 0 -1 1 1 133 116 2 188 337;
