#N canvas 883 58 1033 959 10;
#X obj 267 83 openpanel;
#X msg 267 60 symbol /media/allan/DataDrive/projects/sound;
#N canvas 0 0 450 300 (subpatch) 0;
#X array \$0wav 63936 float 2 black black;
#X coords 0 1 63936 -1 133 50 1;
#X restore 188 350 graph;
#X obj 267 125 soundfiler;
#X floatatom 387 142 9 0 0 0 - - -, f 9;
#X msg 267 104 read -resize \$1 \$0wav;
#X obj 61 263 tabread4~ \$0wav;
#X obj 175 27 inlet;
#X obj 224 27 inlet;
#X obj 61 283 outlet~;
#X obj 305 340 bng 10 250 50 0 empty empty empty 17 7 0 10 -262144
-1 -1;
#X text 279 337 load;
#X obj 438 114 print;
#X obj 267 186 outlet;
#X obj 61 202 phasor~;
#X obj 61 223 *~;
#X obj 267 145 expr $f1/44.1;
#X obj 267 165 f;
#X text 293 165 tempo in msec;
#X obj 188 400 hsl 128 15 0 1 0 0 empty empty empty -2 -8 0 10 -262144
-1 -1 11108 1;
#X obj 66 33 inlet;
#X obj 100 142 tgl 15 0 empty empty empty 17 7 0 10 -262144 -1 -1 0
1;
#X obj 100 161 t b;
#X msg 100 182 0;
#X obj 61 243 *~;
#X obj 15 182 expr 1000/$f1;
#X obj 323 350 s \$0-fbang;
#X obj 267 37 r \$0-fbang;
#X obj 148 223 snapshot~;
#X obj 148 203 metro 50;
#X connect 0 0 5 0;
#X connect 0 0 12 0;
#X connect 1 0 0 0;
#X connect 3 0 4 0;
#X connect 3 0 16 0;
#X connect 3 0 15 1;
#X connect 5 0 3 0;
#X connect 6 0 9 0;
#X connect 7 0 17 0;
#X connect 8 0 5 0;
#X connect 10 0 26 0;
#X connect 14 0 15 0;
#X connect 14 0 28 0;
#X connect 15 0 24 0;
#X connect 16 0 17 0;
#X connect 17 0 13 0;
#X connect 17 0 25 0;
#X connect 20 0 21 0;
#X connect 21 0 22 0;
#X connect 21 0 24 1;
#X connect 21 0 29 0;
#X connect 22 0 23 0;
#X connect 23 0 14 1;
#X connect 24 0 6 0;
#X connect 25 0 14 0;
#X connect 27 0 1 0;
#X connect 28 0 19 0;
#X connect 29 0 28 0;
#X coords 0 -1 1 1 133 81 2 188 337;
