#N canvas 1990 298 984 612 10;
#X obj 30 73 env~;
#X obj 32 124 vu 15 120 empty empty -1 -8 0 4 -1 -262144 1 0;
#X obj 32 93 - 100;
#X obj 79 73 env~;
#X obj 81 93 - 100;
#X obj 131 73 env~;
#X obj 133 93 - 100;
#X obj 180 73 env~;
#X obj 182 93 - 100;
#X obj 25 23 inlet~;
#X obj 74 26 inlet~;
#X obj 125 30 inlet~;
#X obj 176 36 inlet~;
#X obj 231 73 env~;
#X obj 233 93 - 100;
#X obj 280 73 env~;
#X obj 282 93 - 100;
#X obj 332 73 env~;
#X obj 334 93 - 100;
#X obj 381 73 env~;
#X obj 383 93 - 100;
#X obj 229 40 inlet~;
#X obj 278 43 inlet~;
#X obj 329 47 inlet~;
#X obj 380 53 inlet~;
#X obj 52 124 vu 15 120 empty empty -1 -8 0 4 -1 -262144 1 0;
#X obj 72 124 vu 15 120 empty empty -1 -8 0 4 -1 -262144 1 0;
#X obj 92 124 vu 15 120 empty empty -1 -8 0 4 -1 -262144 1 0;
#X obj 112 124 vu 15 120 empty empty -1 -8 0 4 -1 -262144 1 0;
#X obj 132 124 vu 15 120 empty empty -1 -8 0 4 -1 -262144 1 0;
#X obj 152 124 vu 15 120 empty empty -1 -8 0 4 -1 -262144 1 0;
#X obj 172 124 vu 15 120 empty empty -1 -8 0 4 -1 -262144 1 0;
#X connect 0 0 2 0;
#X connect 2 0 1 0;
#X connect 3 0 4 0;
#X connect 4 0 25 0;
#X connect 5 0 6 0;
#X connect 6 0 26 0;
#X connect 7 0 8 0;
#X connect 8 0 27 0;
#X connect 9 0 0 0;
#X connect 10 0 3 0;
#X connect 11 0 5 0;
#X connect 12 0 7 0;
#X connect 13 0 14 0;
#X connect 14 0 28 0;
#X connect 15 0 16 0;
#X connect 16 0 29 0;
#X connect 17 0 18 0;
#X connect 18 0 30 0;
#X connect 19 0 20 0;
#X connect 20 0 31 0;
#X connect 21 0 13 0;
#X connect 22 0 15 0;
#X connect 23 0 17 0;
#X connect 24 0 19 0;
#X coords 0 -1 1 1 165 137 2 28 116;
