#N canvas 721 451 1195 483 10;
#X obj 391 109 hradio 15 0 0 4 empty empty empty 0 -8 0 10 -262144
-1 -1 0;
#X obj 144 189 spigot;
#X obj 177 167 == 0;
#X obj 215 189 spigot;
#X obj 285 189 spigot;
#X obj 356 189 spigot;
#X obj 248 167 == 1;
#X obj 318 167 == 2;
#X obj 389 167 == 3;
#X obj 204 46 inlet;
#X obj 248 235 outlet;
#X obj 389 80 inlet;
#X obj 240 46 inlet;
#X obj 276 46 inlet;
#X obj 312 46 inlet;
#X connect 0 0 2 0;
#X connect 0 0 6 0;
#X connect 0 0 7 0;
#X connect 0 0 8 0;
#X connect 1 0 10 0;
#X connect 2 0 1 1;
#X connect 3 0 10 0;
#X connect 4 0 10 0;
#X connect 5 0 10 0;
#X connect 6 0 3 1;
#X connect 7 0 4 1;
#X connect 8 0 5 1;
#X connect 9 0 1 0;
#X connect 11 0 0 0;
#X connect 12 0 3 0;
#X connect 13 0 4 0;
#X connect 14 0 5 0;
#X coords 0 -1 1 1 64 21 2 389 106;
