#N canvas 504 465 761 403 10;
#X obj 309 50 inlet~;
#X obj 377 355 outlet~;
#X obj 102 117 hsl 128 15 0 1 0 0 empty empty Room_Size 5 5 0 10 -262144
-1 -1 0 1;
#X obj 102 132 hsl 128 15 0 1 0 0 empty empty Damping 5 5 0 10 -262144
-1 -1 0 1;
#X obj 102 147 hsl 128 15 0 1 0 0 empty empty Wet 5 5 0 10 -262144
-1 -1 0 1;
#X obj 102 162 hsl 128 15 0 1 0 0 empty empty Dry 5 5 0 10 -262144
-1 -1 0 1;
#X msg 7 218 roomsize \$1;
#X msg 7 240 damping \$1;
#X msg 23 270 wet \$1;
#X msg 23 292 dry \$1;
#X obj 488 50 inlet~;
#X obj 439 355 outlet~;
#N canvas 0 0 450 300 freeverbox 0;
#X obj 95 65 inlet~;
#X obj 183 63 inlet~;
#X obj 300 59 inlet;
#X obj 99 132 outlet~;
#X obj 184 133 outlet~;
#X obj 131 100 freeverb~;
#X obj 307 101 switch~;
#X obj 25 67 inlet;
#X connect 0 0 5 0;
#X connect 1 0 5 1;
#X connect 2 0 6 0;
#X connect 5 0 3 0;
#X connect 5 1 4 0;
#X connect 7 0 5 0;
#X restore 418 242 pd freeverbox;
#X obj 430 79 f;
#X obj 323 142 expr 1-$f1;
#X obj 323 164 pack 0 10;
#X obj 323 187 line~;
#X obj 309 207 *~;
#X obj 397 141 pack 0 10;
#X obj 397 164 line~;
#X obj 386 275 *~;
#X obj 102 102 tgl 15 0 empty empty EN 16 6 0 10 -262144 -13381 -1
0 1;
#X obj 548 139 expr 1-$f1;
#X obj 548 161 pack 0 10;
#X obj 548 184 line~;
#X obj 534 204 *~;
#X obj 622 138 pack 0 10;
#X obj 622 161 line~;
#X obj 597 268 *~;
#X obj 103 45 loadbang;
#X msg 98 71 0;
#X connect 0 0 17 0;
#X connect 0 0 12 1;
#X connect 2 0 6 0;
#X connect 3 0 7 0;
#X connect 4 0 8 0;
#X connect 5 0 9 0;
#X connect 6 0 12 0;
#X connect 7 0 12 0;
#X connect 8 0 12 0;
#X connect 9 0 12 0;
#X connect 10 0 25 0;
#X connect 10 0 12 2;
#X connect 12 0 20 0;
#X connect 12 1 28 0;
#X connect 13 0 14 0;
#X connect 13 0 18 0;
#X connect 13 0 12 3;
#X connect 13 0 22 0;
#X connect 13 0 26 0;
#X connect 14 0 15 0;
#X connect 15 0 16 0;
#X connect 16 0 17 1;
#X connect 17 0 1 0;
#X connect 18 0 19 0;
#X connect 19 0 20 1;
#X connect 20 0 1 0;
#X connect 21 0 13 0;
#X connect 22 0 23 0;
#X connect 23 0 24 0;
#X connect 24 0 25 1;
#X connect 25 0 11 0;
#X connect 26 0 27 0;
#X connect 27 0 28 1;
#X connect 28 0 11 0;
#X connect 29 0 30 0;
#X connect 30 0 21 0;
#X coords 0 -1 1 1 133 79 2 102 100;
